<?xml version="1.0" encoding="utf-8"?>
<!-- Generator: Adobe Illustrator 27.9.0, SVG Export Plug-In . SVG Version: 6.00 Build 0)  -->
<svg version="1.1" id="Layer_1" xmlns="http://www.w3.org/2000/svg" xmlns:xlink="http://www.w3.org/1999/xlink" x="0px" y="0px"
	 viewBox="0 0 183 136.8" style="enable-background:new 0 0 183 136.8;" xml:space="preserve">
<style type="text/css">
	.st0{fill:#0372D8;}
	.st1{fill:url(#SVGID_1_);stroke:#221F1F;stroke-width:5.669291e-02;stroke-miterlimit:10;}
	.st2{fill:url(#SVGID_00000168814872602808571850000006801944394876052910_);}
	.st3{fill:url(#SVGID_00000127742249504361042840000003717575402262099091_);}
	.st4{fill:url(#SVGID_00000052783559803322698620000000295982797187072683_);}
	.st5{fill:#FFFFFF;}
</style>
<path class="st0" d="M22.7,117.4c0,10.7,8.7,19.4,19.4,19.4H140c10.7,0,19.4-8.7,19.4-19.4V19.4C159.5,8.7,150.8,0,140,0H42.1
	C31.4,0,22.7,8.7,22.7,19.4V117.4z"/>
<linearGradient id="SVGID_1_" gradientUnits="userSpaceOnUse" x1="36.4736" y1="40.2504" x2="142.3368" y2="40.2504">
	<stop  offset="0" style="stop-color:#F58421"/>
	<stop  offset="1" style="stop-color:#EEE42B"/>
</linearGradient>
<polygon class="st1" points="107.7,40.2 107.7,40.2 107.7,40.3 "/>
<linearGradient id="SVGID_00000057134289771931850410000009394404744898483081_" gradientUnits="userSpaceOnUse" x1="91.8147" y1="38.5134" x2="178.5666" y2="9.3648">
	<stop  offset="0" style="stop-color:#F58421"/>
	<stop  offset="1" style="stop-color:#EEE42B"/>
</linearGradient>
<path style="fill:url(#SVGID_00000057134289771931850410000009394404744898483081_);" d="M116.5,28.7l-0.6-0.3l-7.9-3.3l-0.3,0.1
	l-16.8,7.1l-17.9,7.5l9.7,4.7c4,1.9,10.5,1.9,14.5,0l9.6-4.6l1-0.5v0l0.1,0l8.9-4.3c1.9-0.9,2.9-2.1,2.9-3.3v-0.2
	C119.5,30.6,118.5,29.5,116.5,28.7z"/>
<linearGradient id="SVGID_00000019646395790590014250000009888951369368674482_" gradientUnits="userSpaceOnUse" x1="63.2516" y1="83.3126" x2="130.0726" y2="55.8519">
	<stop  offset="0" style="stop-color:#F58421"/>
	<stop  offset="1" style="stop-color:#EEE42B"/>
</linearGradient>
<path style="fill:url(#SVGID_00000019646395790590014250000009888951369368674482_);" d="M82.6,45.4l-9.7-4.7l-0.3,0.1v15.1v0.9
	v15.1v1.2v0.9l-8.5,3.4L62.9,78c-2,0.8-3,1.9-3.1,3v0.2l0,0v15.2v0l0,0c-0.1,1.2,0.9,2.4,2.9,3.4l20,9.6c2.1,1,4.8,1.5,7.6,1.4V46.8
	C87.5,46.8,84.7,46.4,82.6,45.4z"/>
<linearGradient id="SVGID_00000141453682112005450860000017873599705540347804_" gradientUnits="userSpaceOnUse" x1="89.2234" y1="27.8041" x2="116.6841" y2="102.8633">
	<stop  offset="0" style="stop-color:#EEE42B"/>
	<stop  offset="8.140887e-02" style="stop-color:#EEDE2A"/>
	<stop  offset="0.1953" style="stop-color:#F0CB28"/>
	<stop  offset="0.3283" style="stop-color:#F2AD25"/>
	<stop  offset="0.4749" style="stop-color:#F58421"/>
	<stop  offset="0.4758" style="stop-color:#F58421"/>
</linearGradient>
<path style="fill:url(#SVGID_00000141453682112005450860000017873599705540347804_);" d="M116.6,78.2l-0.6-0.3l-8.3-3.4v-1.8l0.1,0
	l-0.1,0v-0.9V56.3l0.1,0l-0.1,0v-0.6l8.9-4.3c2-0.9,2.9-2.1,2.9-3.3l0,0v-0.1V32.7c0,1.2-1,2.3-2.9,3.3l-8.9,4.3l-0.1,0l-1,0.5
	l-9.6,4.6c-1.7,0.8-3.8,1.3-6,1.4v64.1c2.2-0.1,4.4-0.6,6.1-1.4l19.5-9.4c2-0.9,2.9-2.1,2.9-3.3l0,0v-0.1V81.4l0,0v-0.2
	C119.6,80.1,118.5,79,116.6,78.2z"/>
<g>
	<path class="st5" d="M281.9,71c0-21.4,16.4-36.9,38.4-36.9c11.7,0,21.7,4.2,28.4,12l-8.6,8.1c-5.2-5.6-11.7-8.4-19.2-8.4
		c-14.9,0-25.6,10.4-25.6,25.2c0,14.8,10.8,25.2,25.6,25.2c7.5,0,13.9-2.8,19.2-8.5l8.6,8.2c-6.7,7.8-16.7,12-28.5,12
		C298.3,107.9,281.9,92.4,281.9,71z"/>
	<path class="st5" d="M350.5,97.5l7.6-9.1c3.9,5.3,8.6,8.2,14.2,8.2c7.4,0,11.2-4.4,11.2-13.2V46.3H358V35.1h38.8v47.5
		c0,16.9-8.4,25.2-24.2,25.2C363.6,107.9,355.4,104.2,350.5,97.5z"/>
	<path class="st5" d="M509.3,35.1L478,106.8h-13.1l-31.3-71.7H448l23.9,55.3L496,35.1H509.3z"/>
	<path class="st5" d="M570.6,95.7v11.2h-53.8V35.1h52.3v11.2h-39v18.6h34.6v11h-34.6v19.8H570.6z"/>
	<path class="st5" d="M649.2,35.1v71.7h-11l-39.5-48.6v48.6h-13.2V35.1h11L636,83.7V35.1H649.2z"/>
	<path class="st5" d="M667.8,75.6V35.1h13.3v40c0,14.8,6.7,21.1,18.2,21.1s18.1-6.4,18.1-21.1v-40h13.1v40.5
		c0,20.9-11.8,32.3-31.3,32.3C679.6,107.9,667.8,96.5,667.8,75.6z"/>
	<path class="st5" d="M803.1,95.7v11.2h-53.8V35.1h52.3v11.2h-39v18.6h34.6v11h-34.6v19.8H803.1z"/>
	<path class="st5" d="M811.9,99.2l4.6-10.3c5.7,4.6,14.9,7.9,23.7,7.9c11.2,0,15.9-4,15.9-9.3c0-15.5-42.6-5.3-42.6-32
		c0-11.6,9.2-21.4,28.9-21.4c8.6,0,17.6,2.3,23.9,6.4L862,50.8c-6.5-3.8-13.5-5.6-19.8-5.6c-11.1,0-15.6,4.3-15.6,9.7
		c0,15.3,42.5,5.3,42.5,31.7c0,11.5-9.3,21.3-29,21.3C829,107.9,817.8,104.4,811.9,99.2z"/>
</g>
</svg>
